<?xml version="1.0" encoding="UTF-8" standalone="no"?>
<svg
   xmlns:dc="http://purl.org/dc/elements/1.1/"
   xmlns:cc="http://creativecommons.org/ns#"
   xmlns:rdf="http://www.w3.org/1999/02/22-rdf-syntax-ns#"
   xmlns:svg="http://www.w3.org/2000/svg"
   xmlns="http://www.w3.org/2000/svg"
   xmlns:sodipodi="http://sodipodi.sourceforge.net/DTD/sodipodi-0.dtd"
   xmlns:inkscape="http://www.inkscape.org/namespaces/inkscape"
   inkscape:export-ydpi="45.509998"
   inkscape:export-xdpi="45.509998"
   inkscape:export-filename="/home/cristian/Imágenes/xjoy-logo.png"
   inkscape:version="0.92.2 5c3e80d, 2017-08-06"
   sodipodi:docname="xjoy-logo.svg"
   id="svg3868"
   version="1.1"
   height="1080"
   width="1080">
  <sodipodi:namedview
     inkscape:snap-page="true"
     inkscape:current-layer="svg3868"
     inkscape:window-maximized="1"
     inkscape:window-y="0"
     inkscape:window-x="0"
     inkscape:cy="443.93078"
     inkscape:cx="737.434"
     inkscape:zoom="0.37123106"
     showgrid="false"
     id="namedview3870"
     inkscape:window-height="705"
     inkscape:window-width="1366"
     inkscape:pageshadow="2"
     inkscape:pageopacity="0"
     guidetolerance="10"
     gridtolerance="10"
     objecttolerance="10"
     borderopacity="1"
     bordercolor="#666666"
     pagecolor="#ffffff" />
  <defs
     id="defs3872">
    <clipPath
       id="clipPath4609"
       clipPathUnits="userSpaceOnUse">
      <g
         inkscape:label="Clip"
         id="use4611"
         style="fill:#25536d;fill-opacity:1">
        <path
           d="m 365.52997,425.66933 c -4.38219,0 -7.84653,3.55144 -7.84653,7.931 v 208.61206 c 0,4.37953 3.46434,7.84187 7.84653,7.84187 H 713.0059 c 4.38214,0 7.93568,-3.46234 7.93568,-7.84187 V 433.60033 c 0,-4.37956 -3.55354,-7.931 -7.93568,-7.931 H 562.32877 c -0.7769,1.28054 -2.2201,2.1387 -3.83404,2.1387 h -40.83705 c -1.60964,0 -2.96661,-0.8638 -3.74491,-2.1387 z"
           id="path4656"
           stroke-miterlimit="4"
           inkscape:connector-curvature="0"
           style="fill:#25536d;fill-opacity:1;fill-rule:evenodd;stroke:none;stroke-width:1.34088397;stroke-linecap:round;stroke-linejoin:round;stroke-miterlimit:4" />
        <rect
           ry="3.5921185"
           rx="3.7183862"
           y="443.60849"
           x="375.66226"
           height="195.28923"
           width="327.24649"
           id="rect4658"
           stroke-miterlimit="4"
           style="fill:#25536d;fill-opacity:1;fill-rule:evenodd;stroke:none;stroke-width:1.34088397;stroke-linecap:round;stroke-linejoin:round;stroke-miterlimit:4" />
        <path
           d="m 229.47851,489.79472 c -15.6651,85.73427 -25.88189,177.4443 -33.56801,217.69035 -12.056,63.1276 93.50324,116.1937 133.52595,43.2399 30.38392,-55.38404 64.89817,-125.99201 64.89817,-125.99201 z"
           id="path4660"
           stroke-miterlimit="4"
           inkscape:connector-curvature="0"
           style="fill:#25536d;fill-opacity:1;fill-rule:evenodd;stroke:none;stroke-width:1.34088397;stroke-miterlimit:4" />
        <path
           id="path4662"
           d="m 693.3512,385.43014 h 94.58638 l -7.41273,-12.18037 c -4.8601,-7.98599 -17.49407,-13.91266 -39.88041,-13.91266 -22.38653,0 -35.02042,5.92667 -39.8805,13.91266 z"
           stroke-miterlimit="4"
           inkscape:connector-curvature="0"
           style="fill:#25536d;fill-opacity:1;fill-rule:evenodd;stroke:none;stroke-width:1.34088397;stroke-miterlimit:4" />
        <path
           d="m 287.17849,385.43014 h 94.58631 l -7.41271,-12.18037 c -4.86002,-7.98599 -17.49401,-13.91266 -39.88042,-13.91266 -22.38644,0 -35.02033,5.92667 -39.88045,13.91266 z"
           id="path4664"
           stroke-miterlimit="4"
           inkscape:connector-curvature="0"
           style="fill:#25536d;fill-opacity:1;fill-rule:evenodd;stroke:none;stroke-width:1.34088397;stroke-miterlimit:4" />
        <path
           id="path4666"
           d="m 393.96158,442.08925 c -4.84869,-31.3116 -7.08652,-46.96745 -9.32444,-58.5229 -2.23782,-11.55555 -22.00562,-17.51963 -50.16547,-17.51963 -28.15978,0 -47.92758,5.96408 -50.1655,17.51963 -2.23783,11.55545 -4.47575,27.2113 -9.32444,58.5229"
           stroke-miterlimit="4"
           inkscape:connector-curvature="0"
           style="fill:#25536d;fill-opacity:1;fill-rule:evenodd;stroke:none;stroke-width:1.34088397;stroke-miterlimit:4" />
        <path
           id="path4668"
           d="m 442.82183,516.63336 c 0,59.70175 -48.42653,108.0996 -108.16358,108.0996 -59.73708,0 -108.16356,-48.39785 -108.16356,-108.0996 0,-59.70186 48.42648,-108.09974 108.16356,-108.09974 59.73705,0 108.16358,48.39788 108.16358,108.09974 z"
           stroke-miterlimit="4"
           inkscape:connector-curvature="0"
           style="fill:#25536d;fill-opacity:1;fill-rule:evenodd;stroke:none;stroke-width:1.34088397;stroke-linecap:round;stroke-linejoin:round;stroke-miterlimit:4" />
        <path
           d="m 800.13431,442.08925 c -4.84872,-31.3116 -7.08655,-46.96745 -9.32449,-58.5229 -2.23782,-11.55555 -22.00561,-17.51963 -50.1655,-17.51963 -28.15975,0 -47.92755,5.96408 -50.16544,17.51963 -2.23784,11.55545 -4.47571,27.2113 -9.32446,58.5229"
           id="path4670"
           stroke-miterlimit="4"
           inkscape:connector-curvature="0"
           style="fill:#25536d;fill-opacity:1;fill-rule:evenodd;stroke:none;stroke-width:1.34088397;stroke-miterlimit:4" />
        <path
           d="m 506.974,621.75106 c 0,37.87974 -30.72578,68.58738 -68.62793,68.58738 -37.90217,0 -68.62795,-30.70764 -68.62795,-68.58738 0,-37.87978 30.72578,-68.58745 68.62795,-68.58745 37.90215,0 68.62793,30.70766 68.62793,68.58745 z"
           id="path4672"
           stroke-miterlimit="4"
           inkscape:connector-curvature="0"
           style="fill:#25536d;fill-opacity:1;fill-rule:evenodd;stroke:none;stroke-width:1.34088397;stroke-linecap:round;stroke-linejoin:round;stroke-miterlimit:4" />
        <path
           id="path4674"
           d="m 849.02774,489.79503 c 15.66475,85.73361 25.88129,178.93508 33.56817,217.68994 12.50206,63.0405 -93.5033,116.1935 -133.52706,43.2401 -30.38269,-55.38356 -64.89784,-125.99245 -64.89784,-125.99245 z"
           stroke-miterlimit="4"
           inkscape:connector-curvature="0"
           style="fill:#25536d;fill-opacity:1;fill-rule:evenodd;stroke:none;stroke-width:1.34088397;stroke-miterlimit:4" />
        <path
           d="m 635.68419,516.63336 c 0,59.70175 48.42649,108.0996 108.16357,108.0996 59.73709,0 108.16356,-48.39785 108.16356,-108.0996 0,-59.70186 -48.42647,-108.09974 -108.16356,-108.09974 -59.73708,0 -108.16357,48.39788 -108.16357,108.09974 z"
           id="path4676"
           stroke-miterlimit="4"
           inkscape:connector-curvature="0"
           style="fill:#25536d;fill-opacity:1;fill-rule:evenodd;stroke:none;stroke-width:1.34088397;stroke-linecap:round;stroke-linejoin:round;stroke-miterlimit:4" />
        <path
           id="path4678"
           d="m 706.89011,621.75106 c 0,37.87974 -30.72591,68.58738 -68.62797,68.58738 -37.90219,0 -68.62795,-30.70764 -68.62795,-68.58738 0,-37.87978 30.72575,-68.58745 68.62795,-68.58745 37.90206,0 68.62797,30.70766 68.62797,68.58745 z"
           stroke-miterlimit="4"
           inkscape:connector-curvature="0"
           style="fill:#25536d;fill-opacity:1;fill-rule:evenodd;stroke:none;stroke-width:1.34088397;stroke-linecap:round;stroke-linejoin:round;stroke-miterlimit:4" />
      </g>
    </clipPath>
    <clipPath
       id="clipPath4628"
       clipPathUnits="userSpaceOnUse">
      <g
         inkscape:label="Clip"
         id="use4630"
         style="fill:#a7f3f2;fill-opacity:1">
        <path
           id="path4632"
           d="m 484.59537,621.75106 c 0,25.52766 -20.70649,46.22195 -46.2493,46.22195 -25.54272,0 -46.24925,-20.69429 -46.24925,-46.22193 0,-25.52764 20.70653,-46.22195 46.24925,-46.22195 25.54281,0 46.2493,20.69431 46.2493,46.22193 z"
           stroke-miterlimit="4"
           inkscape:connector-curvature="0"
           style="fill:#a7f3f2;fill-opacity:1;fill-rule:evenodd;stroke:none;stroke-width:1.34088397;stroke-linecap:round;stroke-linejoin:round;stroke-miterlimit:4" />
        <path
           id="path4634"
           d="m 767.34533,466.31095 c 0,12.96968 -10.52022,23.48374 -23.49757,23.48374 -12.97733,0 -23.49757,-10.51406 -23.49757,-23.48374 0,-12.96965 10.52024,-23.48372 23.49757,-23.48372 12.97735,0 23.49757,10.51407 23.49757,23.48372 z"
           stroke-miterlimit="4"
           inkscape:connector-curvature="0"
           style="fill:#a7f3f2;fill-opacity:1;fill-rule:evenodd;stroke:none;stroke-width:1.34088397;stroke-linecap:round;stroke-linejoin:round;stroke-miterlimit:4" />
        <path
           d="m 767.34533,567.32829 c 0,12.96967 -10.52022,23.48368 -23.49757,23.48368 -12.97733,0 -23.49757,-10.51403 -23.49757,-23.48368 0,-12.96969 10.52024,-23.48375 23.49757,-23.48375 12.97735,0 23.49757,10.51406 23.49757,23.48375 z"
           id="path4636"
           stroke-miterlimit="4"
           inkscape:connector-curvature="0"
           style="fill:#a7f3f2;fill-opacity:1;fill-rule:evenodd;stroke:none;stroke-width:1.34088397;stroke-linecap:round;stroke-linejoin:round;stroke-miterlimit:4" />
        <path
           d="m 770.88861,516.81956 c 0,-12.96967 10.52025,-23.4837 23.49758,-23.4837 12.97731,0 23.49757,10.51403 23.49757,23.4837 0,12.96969 -10.52026,23.48372 -23.49757,23.48372 -12.97733,0 -23.49758,-10.51403 -23.49758,-23.48372 z"
           id="path4638"
           stroke-miterlimit="4"
           inkscape:connector-curvature="0"
           style="fill:#a7f3f2;fill-opacity:1;fill-rule:evenodd;stroke:none;stroke-width:1.34088397;stroke-linecap:round;stroke-linejoin:round;stroke-miterlimit:4" />
        <path
           id="path4640"
           d="m 669.81167,516.81956 c 0,-12.96967 10.52022,-23.4837 23.49759,-23.4837 12.9773,0 23.49755,10.51403 23.49755,23.4837 0,12.96969 -10.52025,23.48372 -23.49755,23.48372 -12.97737,0 -23.49759,-10.51403 -23.49759,-23.48372 z"
           stroke-miterlimit="4"
           inkscape:connector-curvature="0"
           style="fill:#a7f3f2;fill-opacity:1;fill-rule:evenodd;stroke:none;stroke-width:1.34088397;stroke-linecap:round;stroke-linejoin:round;stroke-miterlimit:4" />
        <path
           d="m 684.51142,621.75106 c 0,25.52766 -20.70648,46.22195 -46.24928,46.22195 -25.54282,0 -46.24928,-20.69429 -46.24928,-46.22193 0,-25.52764 20.70646,-46.22195 46.24928,-46.22195 25.5428,0 46.24928,20.69431 46.24928,46.22193 z"
           id="path4642"
           stroke-miterlimit="4"
           inkscape:connector-curvature="0"
           style="fill:#a7f3f2;fill-opacity:1;fill-rule:evenodd;stroke:none;stroke-width:1.34088397;stroke-linecap:round;stroke-linejoin:round;stroke-miterlimit:4" />
        <g
           transform="matrix(1.3412798,0,0,1.3404884,114.63275,268.3249)"
           id="g4652"
           style="fill:#a7f3f2;fill-opacity:1;stroke:none">
          <path
             d="m 183.48657,172.27525 c -0.71321,0.061 -1.3663,0.42392 -1.79489,0.99716 l -7.4455,9.43981 c -0.69332,0.90147 -0.69332,2.15649 0,3.05797 l 7.4455,9.50628 c 0.47235,0.62583 1.21022,0.99483 1.99432,0.99717 l 17.28415,0.0665 c 0.67147,0.005 1.31684,-0.25967 1.79166,-0.7345 0.47482,-0.47482 0.73936,-1.12025 0.7345,-1.79164 v -18.68019 c 0.0103,-1.37357 -1.08637,-2.49979 -2.45967,-2.52615 l -17.28417,-0.33239 c -0.0885,-0.005 -0.17735,-0.005 -0.2659,0 z"
             id="path4644"
             stroke-miterlimit="4"
             inkscape:connector-curvature="0"
             style="fill:#a7f3f2;fill-opacity:1;fill-rule:evenodd;stroke:none;stroke-linecap:round;stroke-linejoin:round;stroke-miterlimit:4" />
          <path
             id="path4646"
             d="m 143.83508,172.08624 c 0.71308,0.061 1.36617,0.42392 1.79489,0.99716 l 7.4455,9.43981 c 0.69333,0.90147 0.69333,2.15649 0,3.05797 l -7.4455,9.50628 c -0.47235,0.62583 -1.21035,0.99483 -1.99432,0.99717 l -17.28416,0.0665 c -0.67153,0.005 -1.31682,-0.25967 -1.79178,-0.7345 -0.47469,-0.47482 -0.7393,-1.12025 -0.73436,-1.79165 V 174.9448 c -0.0104,-1.37357 1.08623,-2.4998 2.45967,-2.52615 l 17.28415,-0.33239 c 0.0886,-0.005 0.17736,-0.005 0.26591,0 z"
             stroke-miterlimit="4"
             inkscape:connector-curvature="0"
             style="fill:#a7f3f2;fill-opacity:1;fill-rule:evenodd;stroke:none;stroke-linecap:round;stroke-linejoin:round;stroke-miterlimit:4" />
          <path
             id="path4648"
             d="m 175.59706,204.03726 c -0.061,-0.71319 -0.42404,-1.36629 -0.99716,-1.79489 l -9.43981,-7.44548 c -0.90161,-0.69334 -2.15663,-0.69334 -3.05796,0 l -9.50629,7.44548 c -0.62582,0.47235 -0.99483,1.21024 -0.99716,1.99432 l -0.0665,17.28417 c -0.005,0.67146 0.25968,1.31682 0.73438,1.79164 0.47494,0.47482 1.12024,0.73936 1.79178,0.7345 h 18.68017 c 1.37345,0.0103 2.49967,-1.08635 2.52616,-2.45966 l 0.33238,-17.28416 c 0.005,-0.0885 0.005,-0.17737 0,-0.26592 z"
             stroke-miterlimit="4"
             inkscape:connector-curvature="0"
             style="fill:#a7f3f2;fill-opacity:1;fill-rule:evenodd;stroke:none;stroke-linecap:round;stroke-linejoin:round;stroke-miterlimit:4" />
          <path
             d="m 175.78607,164.38568 c -0.061,0.71321 -0.42404,1.3663 -0.99716,1.79489 l -9.4398,7.4455 c -0.9016,0.69333 -2.15664,0.69333 -3.05797,0 l -9.50629,-7.4455 c -0.62582,-0.47235 -0.99483,-1.21022 -0.99716,-1.99432 l -0.0665,-17.28415 c -0.005,-0.67154 0.25968,-1.31683 0.73437,-1.79166 0.47495,-0.47482 1.12026,-0.73944 1.79178,-0.73449 h 18.68019 c 1.37343,-0.0103 2.49965,1.08636 2.52614,2.45967 l 0.33238,17.28416 c 0.005,0.0885 0.005,0.17735 0,0.2659 z"
             id="path4650"
             stroke-miterlimit="4"
             inkscape:connector-curvature="0"
             style="fill:#a7f3f2;fill-opacity:1;fill-rule:evenodd;stroke:none;stroke-linecap:round;stroke-linejoin:round;stroke-miterlimit:4" />
        </g>
      </g>
    </clipPath>
    <clipPath
       id="clipPath4950"
       clipPathUnits="userSpaceOnUse">
      <g
         style="fill:#e6e6e6;stroke:none"
         id="use4952"
         inkscape:label="Clip">
        <path
           style="fill:#e6e6e6;fill-rule:evenodd;stroke:none;stroke-width:1.34088397;stroke-linecap:round;stroke-linejoin:round;stroke-miterlimit:4"
           inkscape:connector-curvature="0"
           stroke-miterlimit="4"
           id="path19300"
           d="m 354.21728,415.80456 c -4.38219,0 -7.84653,3.55144 -7.84653,7.931 v 208.61206 c 0,4.37953 3.46434,7.84187 7.84653,7.84187 h 347.47593 c 4.38214,0 7.93568,-3.46234 7.93568,-7.84187 V 423.73556 c 0,-4.37956 -3.55354,-7.931 -7.93568,-7.931 H 551.01608 c -0.7769,1.28054 -2.2201,2.1387 -3.83404,2.1387 h -40.83705 c -1.60964,0 -2.96661,-0.8638 -3.74491,-2.1387 z" />
        <rect
           style="fill:#e6e6e6;fill-rule:evenodd;stroke:none;stroke-width:1.34088397;stroke-linecap:round;stroke-linejoin:round;stroke-miterlimit:4"
           stroke-miterlimit="4"
           id="rect19302"
           width="327.24649"
           height="195.28923"
           x="364.34958"
           y="433.74371"
           rx="3.7183862"
           ry="3.5921185" />
        <path
           style="fill:#e6e6e6;fill-rule:evenodd;stroke:none;stroke-width:1.34088397;stroke-miterlimit:4"
           inkscape:connector-curvature="0"
           stroke-miterlimit="4"
           id="path19304"
           d="m 218.16581,479.92995 c -15.66509,85.73427 -25.88188,177.4443 -33.568,217.69038 -12.056,63.1276 93.50323,116.19364 133.52595,43.23988 30.38392,-55.38405 64.89817,-125.99202 64.89817,-125.99202 z" />
        <path
           style="fill:#e6e6e6;fill-rule:evenodd;stroke:none;stroke-width:1.34088397;stroke-miterlimit:4"
           inkscape:connector-curvature="0"
           stroke-miterlimit="4"
           d="m 382.64889,432.22448 c -4.84869,-31.3116 -7.08652,-46.96745 -9.32444,-58.5229 -2.23782,-11.55555 -22.00562,-17.51963 -50.16547,-17.51963 -28.15978,0 -47.92758,5.96408 -50.16551,17.51963 -2.23783,11.55545 -4.47574,27.2113 -9.32444,58.5229"
           id="path19306" />
        <path
           style="fill:#e6e6e6;fill-rule:evenodd;stroke:none;stroke-width:1.34088397;stroke-linecap:round;stroke-linejoin:round;stroke-miterlimit:4"
           inkscape:connector-curvature="0"
           stroke-miterlimit="4"
           d="m 431.50914,506.76859 c 0,59.70175 -48.42653,108.0996 -108.16358,108.0996 -59.73709,0 -108.16356,-48.39785 -108.16356,-108.0996 0,-59.70186 48.42647,-108.09974 108.16356,-108.09974 59.73705,0 108.16358,48.39788 108.16358,108.09974 z"
           id="path19308" />
        <path
           style="fill:#e6e6e6;fill-rule:evenodd;stroke:none;stroke-width:1.34088397;stroke-miterlimit:4"
           inkscape:connector-curvature="0"
           stroke-miterlimit="4"
           id="path19310"
           d="m 788.82162,432.22448 c -4.84872,-31.3116 -7.08655,-46.96745 -9.32449,-58.5229 -2.23782,-11.55555 -22.00561,-17.51963 -50.1655,-17.51963 -28.15975,0 -47.92755,5.96408 -50.16544,17.51963 -2.23784,11.55545 -4.47571,27.2113 -9.32446,58.5229" />
        <path
           style="fill:#e6e6e6;fill-rule:evenodd;stroke:none;stroke-width:1.34088397;stroke-linecap:round;stroke-linejoin:round;stroke-miterlimit:4"
           inkscape:connector-curvature="0"
           stroke-miterlimit="4"
           id="path19312"
           d="m 495.66131,611.88629 c 0,37.87974 -30.72578,68.58738 -68.62793,68.58738 -37.90217,0 -68.62795,-30.70764 -68.62795,-68.58738 0,-37.87978 30.72578,-68.58745 68.62795,-68.58745 37.90215,0 68.62793,30.70766 68.62793,68.58745 z" />
        <path
           style="fill:#e6e6e6;fill-rule:evenodd;stroke:none;stroke-width:1.34088397;stroke-miterlimit:4"
           inkscape:connector-curvature="0"
           stroke-miterlimit="4"
           d="m 837.71505,479.93026 c 15.66475,85.73361 25.88129,178.93508 33.56817,217.68995 12.50206,63.04049 -93.5033,116.19351 -133.52706,43.24012 -30.38269,-55.38359 -64.89784,-125.99248 -64.89784,-125.99248 z"
           id="path19314" />
        <path
           style="fill:#e6e6e6;fill-rule:evenodd;stroke:none;stroke-width:1.34088397;stroke-linecap:round;stroke-linejoin:round;stroke-miterlimit:4"
           inkscape:connector-curvature="0"
           stroke-miterlimit="4"
           id="path19316"
           d="m 624.3715,506.76859 c 0,59.70175 48.42649,108.0996 108.16357,108.0996 59.73709,0 108.16356,-48.39785 108.16356,-108.0996 0,-59.70186 -48.42647,-108.09974 -108.16356,-108.09974 -59.73708,0 -108.16357,48.39788 -108.16357,108.09974 z" />
        <path
           style="fill:#e6e6e6;fill-rule:evenodd;stroke:none;stroke-width:1.34088397;stroke-linecap:round;stroke-linejoin:round;stroke-miterlimit:4"
           inkscape:connector-curvature="0"
           stroke-miterlimit="4"
           d="m 695.57742,611.88629 c 0,37.87974 -30.72591,68.58738 -68.62797,68.58738 -37.90219,0 -68.62795,-30.70764 -68.62795,-68.58738 0,-37.87978 30.72575,-68.58745 68.62795,-68.58745 37.90206,0 68.62797,30.70766 68.62797,68.58745 z"
           id="path19318" />
      </g>
    </clipPath>
    <clipPath
       clipPathUnits="userSpaceOnUse"
       id="clipPath131180">
      <circle
         r="540"
         cy="540"
         cx="540"
         id="circle131182"
         style="fill:#f16437;fill-opacity:1;stroke:none;stroke-width:20.56292343;stroke-miterlimit:4;stroke-dasharray:none;stroke-opacity:1" />
    </clipPath>
  </defs>
  <title
     id="title3796">controller17</title>
  <metadata
     id="metadata7">image/svg+xml<rdf:RDF>
  <cc:Work
     rdf:about="">
    <dc:format>image/svg+xml</dc:format>
    <dc:type
       rdf:resource="http://purl.org/dc/dcmitype/StillImage" />
    <dc:title>controller17</dc:title>
  </cc:Work>
</rdf:RDF>
</metadata>
  <circle
     r="540"
     cy="540"
     cx="540"
     id="path4571"
     style="fill:#f16437;fill-opacity:1;stroke:none;stroke-width:20.56292343;stroke-miterlimit:4;stroke-dasharray:none;stroke-opacity:1" />
  <text
     x="1363.7008"
     y="1634.2699"
     id="svg_3"
     font-size="3.07532px"
     xml:space="preserve"
     style="font-size:3.50837779px;font-family:Arial;text-anchor:middle;fill:#ffffff;stroke:none;stroke-width:1.14081717;stroke-linecap:round;stroke-linejoin:round" />
  <text
     xml:space="preserve"
     font-size="24"
     id="svg_20"
     y="1637.6924"
     x="1389.9396"
     style="font-size:27.37961197px;font-family:serif;text-anchor:middle;fill:#000000;stroke:none;stroke-width:0" />
  <text
     xml:space="preserve"
     font-size="22"
     id="svg_2"
     y="1087.8186"
     x="843.48816"
     style="font-size:25.09797668px;font-family:Serif;text-anchor:middle;fill:#000000;stroke:none;stroke-width:0" />
  <text
     x="1572.4396"
     y="1288.3763"
     id="svg_3-5"
     font-size="3.07532px"
     xml:space="preserve"
     style="font-size:3.50837779px;font-family:Arial;text-anchor:middle;fill:#ffffff;stroke:none;stroke-width:1.14081717;stroke-linecap:round;stroke-linejoin:round" />
  <text
     xml:space="preserve"
     font-size="24"
     id="svg_20-6"
     y="1291.7988"
     x="1598.6783"
     style="font-size:27.37961197px;font-family:serif;text-anchor:middle;fill:#000000;stroke:none;stroke-width:0" />
  <text
     xml:space="preserve"
     font-size="22"
     id="svg_2-2"
     y="741.92499"
     x="1052.2269"
     style="font-size:25.09797668px;font-family:Serif;text-anchor:middle;fill:#000000;stroke:none;stroke-width:0" />
  <path
     transform="translate(-2e-4,-10e-5)"
     inkscape:connector-curvature="0"
     style="opacity:0.2;fill:#000000;fill-opacity:1;fill-rule:evenodd;stroke:none;stroke-width:1.52970338;stroke-linecap:round;stroke-linejoin:round;stroke-miterlimit:4"
     d="m 769.72656,304.29688 c -32.12512,0 -54.67745,6.80355 -57.23047,19.98632 -2.55297,13.18266 -5.10518,31.04286 -10.63671,66.76368 h 0.043 c -0.002,0.0158 -0.003,0.0213 -0.006,0.0371 h 0.0703 c -0.004,0.0267 -0.006,0.0358 -0.01,0.0625 h 0.10156 c -0.006,0.0375 -0.008,0.0504 -0.0137,0.0879 h 0.12891 c -0.007,0.0475 -0.0102,0.0638 -0.0176,0.11132 h 0.15625 c -0.009,0.0575 -0.0126,0.0772 -0.0215,0.13477 h 0.1875 c -0.0107,0.0691 -0.0147,0.0929 -0.0254,0.16211 h 0.21485 c -0.0122,0.0791 -0.017,0.10628 -0.0293,0.18554 h 0.24219 c -0.0138,0.089 -0.0174,0.11982 -0.0312,0.20899 h 0.27148 c -0.0156,0.10066 -0.0215,0.13538 -0.0371,0.23633 h 0.29883 c -0.0171,0.1105 -0.0219,0.14892 -0.0391,0.25976 h 0.32813 c -0.0188,0.12127 -0.0241,0.16347 -0.043,0.28516 h 0.35547 c -0.0203,0.13123 -0.0265,0.17688 -0.0469,0.30859 h 0.38477 c -0.022,0.14199 -0.0287,0.19144 -0.0508,0.33399 h 0.41407 c -0.0237,0.15273 -0.0309,0.20598 -0.0547,0.35937 h 0.44141 c -0.0252,0.16267 -0.0333,0.2194 -0.0586,0.38281 h 0.47266 c -0.0268,0.17341 -0.0355,0.23395 -0.0625,0.40821 h 0.49805 c -0.0285,0.18414 -0.0377,0.24849 -0.0664,0.43359 h 0.5293 c -0.0302,0.19487 -0.04,0.26305 -0.0703,0.45899 h 0.55664 c -0.0317,0.20477 -0.0423,0.27645 -0.0742,0.48242 h 0.58593 c -0.0333,0.21549 -0.0445,0.29101 -0.0781,0.50781 h 0.61328 c -0.0349,0.22539 -0.0469,0.30442 -0.082,0.53125 h 0.64258 c -0.0366,0.23609 -0.0491,0.31897 -0.0859,0.55664 h 0.67187 c -0.01,0.063 -0.0137,0.0854 -0.0234,0.14844 h -268.7204 c -0.74818,-0.73813 -1.57999,-1.44573 -2.50195,-2.11914 -1.14728,-1.66148 -2.67823,-3.18892 -4.58008,-4.57617 -1.15145,-1.67172 -2.6928,-3.20915 -4.60742,-4.60352 -1.15528,-1.68107 -2.70452,-3.22414 -4.63086,-4.625 -1.15969,-1.69188 -2.71828,-3.24596 -4.6582,-4.6543 -1.16244,-1.69924 -2.72689,-3.25843 -4.67578,-4.67187 -1.1664,-1.71053 -2.74268,-3.27989 -4.70508,-4.70117 -1.17073,-1.72139 -2.75635,-3.29781 -4.73242,-4.72657 -1.17397,-1.72973 -2.76741,-3.31356 -4.75391,-4.74804 -1.17801,-1.74059 -2.77939,-3.33541 -4.7793,-4.77735 -1.1812,-1.74907 -2.79226,-3.35107 -4.80273,-4.79882 -1.18524,-1.75995 -2.80608,-3.36903 -4.83008,-4.82422 -1.18853,-1.7694 -2.81604,-3.386 -4.85156,-4.84766 -1.19199,-1.77958 -2.82908,-3.40442 -4.87696,-4.87305 -1.19547,-1.78971 -2.84207,-3.4229 -4.90234,-4.89843 -1.19921,-1.7998 -2.85672,-3.44147 -4.92969,-4.92383 -6.63358,-9.98128 -27.30097,-15.11328 -55.19531,-15.11328 -32.12516,0 -54.67546,6.80356 -57.22852,19.98633 -2.55296,13.18265 -5.10719,31.04286 -10.63867,66.76367 h 5.69922 c -0.3063,1.98631 -0.43333,2.82949 -0.75976,4.9375 h 5.66797 c -0.30494,1.97743 -0.43099,2.81608 -0.75586,4.91406 h 5.64062 c -0.30346,1.96782 -0.42875,2.80153 -0.75195,4.88867 h 5.61133 c -0.30198,1.9582 -0.42653,2.78698 -0.74805,4.86328 h 5.58398 c -0.30061,1.94931 -0.42417,2.77357 -0.74414,4.83985 h 5.55469 c -0.29904,1.93903 -0.42206,2.75778 -0.74023,4.8125 h 5.52539 c -0.29777,1.93076 -0.41959,2.7456 -0.73633,4.79101 h 5.49805 c -0.29618,1.9204 -0.41749,2.72992 -0.73243,4.76367 h 5.4668 c -0.2948,1.91146 -0.41514,2.71652 -0.72852,4.74024 h 5.44141 c -0.29332,1.90182 -0.41291,2.70195 -0.72461,4.71484 h 5.41211 c -0.29196,1.893 -0.41249,2.68842 -0.72266,4.69141 h 5.38477 c -0.29048,1.88333 -0.41026,2.67387 -0.71875,4.66601 h 5.35547 c -0.28899,1.87367 -0.40803,2.65932 -0.71485,4.64063 h 5.32813 c -0.28751,1.86398 -0.4058,2.64477 -0.71094,4.61523 h 5.29883 c -0.28613,1.85503 -0.40345,2.63136 -0.70703,4.5918 h 5.26953 c -0.28464,1.84534 -0.40122,2.6168 -0.70312,4.56641 h 5.24023 c -0.28326,1.83637 -0.39887,2.60339 -0.69922,4.54296 h 5.21289 c -0.28177,1.82667 -0.39664,2.58885 -0.69531,4.51758 h 5.18359 c -0.28028,1.81697 -0.39441,2.57429 -0.6914,4.49219 h 5.15625 c -0.27879,1.80725 -0.39219,2.55974 -0.6875,4.4668 h 5.125 c -0.27741,1.79824 -0.38984,2.54634 -0.6836,4.44336 h 5.09961 c -0.27591,1.78853 -0.3876,2.53178 -0.67968,4.41797 h 5.06835 c -0.27452,1.77953 -0.38525,2.51836 -0.67578,4.39453 h 5.04102 c -0.27293,1.76914 -0.38314,2.50259 -0.67188,4.36718 h 3.17774 v 61.43555 c -1.88432,4.21964 -3.40834,8.63226 -4.52735,13.20703 L 186.57812,445.4707 c -17.871,97.80713 -29.52647,202.4323 -38.29492,248.34571 -4.30137,22.52282 4.52351,43.92139 20.07813,60.15234 0.0133,0.0139 0.0277,0.0271 0.041,0.041 0.002,0.002 0.004,0.004 0.006,0.006 0.0943,0.0986 0.19423,0.1928 0.28907,0.29102 0.0146,0.0153 0.0303,0.0297 0.0449,0.0449 0.42617,0.44541 0.87046,0.8769 1.30664,1.31446 0.22175,0.21948 0.43397,0.44662 0.6582,0.66406 0.0132,0.0128 0.0258,0.0262 0.0391,0.0391 0.0218,0.0212 0.0426,0.0433 0.0645,0.0644 0.0298,0.0289 0.0581,0.059 0.0879,0.0879 0.038,0.037 0.0752,0.0744 0.11328,0.11133 0.0485,0.0473 0.0939,0.0974 0.14258,0.14453 0.0541,0.0528 0.10585,0.10752 0.16015,0.16016 0.0594,0.0579 0.11617,0.11798 0.17578,0.17578 0.0686,0.067 0.13427,0.13634 0.20313,0.20313 0.087,0.085 0.1704,0.17309 0.25781,0.25781 0.0973,0.095 0.19134,0.19248 0.28906,0.28711 0.0789,0.077 0.15327,0.15761 0.23243,0.23437 0.11462,0.11224 0.22456,0.22815 0.33984,0.33985 0.11331,0.11093 0.22199,0.22553 0.33594,0.33593 0.12938,0.12676 0.25455,0.25675 0.38476,0.38282 0.12114,0.11867 0.23752,0.2413 0.35938,0.35937 0.13814,0.13554 0.27107,0.27541 0.41015,0.41016 0.14829,0.14559 0.29203,0.29476 0.44141,0.43945 0.14732,0.14472 0.28715,0.29563 0.43555,0.43945 0.18092,0.17799 0.35651,0.36048 0.53906,0.53711 0.15189,0.14929 0.29813,0.30284 0.45117,0.45118 0.19562,0.19274 0.3845,0.39087 0.58203,0.58203 0.17205,0.16939 0.3382,0.34355 0.51172,0.51172 0.21351,0.21066 0.42093,0.42599 0.63672,0.63476 0.19625,0.19346 0.38581,0.39212 0.58399,0.58399 0.21249,0.20977 0.41805,0.4249 0.63281,0.63281 0.2121,0.20955 0.41649,0.42513 0.63086,0.63281 0.23777,0.23526 0.46837,0.47608 0.70898,0.70898 0.23713,0.2346 0.46707,0.47478 0.70703,0.70704 0.25436,0.25182 0.50215,0.50868 0.75977,0.75781 0.23904,0.23663 0.47097,0.47863 0.71289,0.71289 0.27657,0.27435 0.54574,0.55501 0.82617,0.82617 0.25262,0.25042 0.49807,0.50615 0.75391,0.75391 0.29275,0.29088 0.57791,0.58769 0.875,0.875 0.27808,0.27613 0.55003,0.55717 0.83203,0.83008 0.29157,0.28995 0.57521,0.58664 0.87109,0.87304 0.30804,0.30663 0.60903,0.61922 0.92188,0.92188 0.31138,0.31001 0.61534,0.62568 0.93164,0.93164 0.32787,0.32665 0.64909,0.65831 0.98242,0.98047 0.31327,0.31206 0.61924,0.62954 0.9375,0.9375 0.34372,0.34308 0.67956,0.69311 1.0293,1.03125 0.34505,0.34439 0.68404,0.6938 1.03515,1.0332 0.34692,0.34644 0.68797,0.69767 1.04102,1.03906 0.35985,0.35976 0.71167,0.72576 1.07812,1.08008 0.36396,0.36412 0.72108,0.73324 1.0918,1.0918 0.37985,0.38043 0.7534,0.76626 1.14063,1.14062 0.37993,0.38064 0.7533,0.76606 1.14062,1.14063 0.38738,0.38852 0.76899,0.78186 1.16406,1.16406 0.41291,0.41459 0.82054,0.83283 1.24219,1.24023 0.3999,0.40133 0.79307,0.80854 1.20117,1.20313 0.41159,0.41368 0.81798,0.83175 1.23828,1.23828 0.43708,0.43979 0.8695,0.88273 1.31641,1.31445 0.42408,0.42651 0.84206,0.85843 1.27539,1.27735 0.43608,0.43922 0.86857,0.88131 1.31445,1.3125 0.46087,0.46471 0.91684,0.93294 1.38867,1.38867 0.44821,0.45173 0.89104,0.90833 1.34961,1.35156 0.46048,0.46479 0.91723,0.93286 1.38868,1.38867 0.48945,0.49457 0.97666,0.9902 1.47851,1.47461 0.47256,0.47708 0.93972,0.95817 1.42383,1.42578 0.48385,0.4892 0.96496,0.97971 1.46094,1.45899 0.50176,0.5079 1.00079,1.01841 1.51562,1.51562 0.50448,0.51076 1.00575,1.02349 1.52344,1.52344 0.50752,0.51422 1.01229,1.02993 1.5332,1.5332 0.52248,0.53001 1.04338,1.06168 1.58008,1.58008 0.53166,0.5396 1.06103,1.08181 1.60742,1.60938 0.54527,0.55363 1.08963,1.10746 1.65039,1.64843 0.52794,0.53598 1.05324,1.07355 1.59571,1.59766 0.56042,0.57028 1.12041,1.14039 1.69726,1.69727 0.56044,0.57025 1.12041,1.1404 1.69727,1.69726 0.57179,0.58224 1.14351,1.16414 1.73242,1.73242 0.57375,0.58445 1.14924,1.16789 1.74023,1.73829 0.57851,0.58986 1.15785,1.17834 1.75391,1.7539 0.59557,0.60803 1.19438,1.21378 1.80859,1.80664 0.60154,0.61435 1.20366,1.22926 1.82422,1.82813 0.61728,0.63078 1.23768,1.25857 1.875,1.87304 0.59874,0.61173 1.19881,1.22198 1.81641,1.81836 0.63453,0.64985 1.2739,1.29516 1.92969,1.92774 0.62193,0.63673 1.24827,1.27047 1.89062,1.89062 0.65587,0.67259 1.31748,1.34004 1.9961,1.99414 0.63793,0.65363 1.28002,1.30329 1.93945,1.93946 0.66527,0.68277 1.33669,1.36164 2.02539,2.02539 0.64867,0.66556 1.30171,1.32712 1.97266,1.97461 0.67102,0.68998 1.34998,1.37432 2.04492,2.04492 0.67846,0.69809 1.36543,1.39009 2.06836,2.06836 0.69193,0.71248 1.39392,1.41753 2.11133,2.10937 0.69474,0.71552 1.3987,1.42444 2.11914,2.11914 0.70333,0.72487 1.41484,1.44297 2.14453,2.14649 0.71204,0.7343 1.43475,1.45945 2.17383,2.17187 0.71702,0.73983 1.445,1.47183 2.18945,2.18946 0.72623,0.74995 1.46434,1.48964 2.21875,2.21679 0.72533,0.74955 1.46138,1.49 2.21484,2.2168 0.75051,0.77675 1.51423,1.54256 2.29492,2.29492 0.74111,0.76688 1.49705,1.52252 2.26758,2.26563 0.75578,0.78324 1.52605,1.55597 2.3125,2.31445 0.77256,0.80129 1.56059,1.58984 2.36524,2.36523 0.77291,0.80161 1.56216,1.58955 2.36718,2.36524 0.78916,0.81903 1.59532,1.62403 2.41797,2.41601 0.77141,0.80051 1.55791,1.5886 2.36133,2.36329 0.8044,0.83674 1.62747,1.6582 2.4668,2.46679 0.81269,0.84527 1.64386,1.67566 2.49218,2.49219 0.79532,0.82708 1.60805,1.63988 2.4375,2.43945 0.82697,0.862 1.67507,1.70688 2.53907,2.53907 0.83588,0.87123 1.69466,1.72367 2.56836,2.56445 0.8271,0.86195 1.67493,1.70692 2.53906,2.53906 0.85019,0.88732 1.7239,1.75752 2.61328,2.61328 0.85021,0.88729 1.72387,1.75754 2.61328,2.61328 0.85212,0.88994 1.7276,1.76092 2.61914,2.61914 0.87368,0.91367 1.77231,1.80722 2.6875,2.6875 0.88162,0.92191 1.78902,1.82303 2.71289,2.71094 0.87726,0.91729 1.78013,1.81363 2.69922,2.69727 0.89696,0.93899 1.81901,1.85795 2.75977,2.76172 0.90518,0.94757 1.83733,1.87346 2.78711,2.78515 0.90116,0.94331 1.83002,1.86374 2.77539,2.77149 0.92053,0.96468 1.86726,1.9084 2.83398,2.83593 0.92814,0.97263 1.88431,1.92258 2.85938,2.85743 0.92876,0.97328 1.88556,1.92587 2.86133,2.86132 0.93639,0.98198 1.90249,1.94127 2.88671,2.88477 0.94776,0.99459 1.92509,1.96672 2.92188,2.92187 0.95951,1.00731 1.94919,1.99018 2.95898,2.95704 0.96435,1.01235 1.95949,2.00116 2.97461,2.97265 0.96764,1.01612 1.96364,2.00941 2.98242,2.98438 0.98276,1.03277 1.99765,2.04097 3.03321,3.03125 0.98593,1.0361 2.0039,2.04768 3.04297,3.04101 0.99981,1.05122 2.03145,2.07678 3.08593,3.08399 0.9965,1.04759 2.02343,2.07033 3.07422,3.07422 1.01358,1.06664 2.05908,2.10753 3.12891,3.1289 1.01488,1.06807 2.06349,2.11013 3.13476,3.13282 1.03396,1.08892 2.10083,2.15159 3.19336,3.19335 1.03077,1.08513 2.09465,2.14337 3.1836,3.18165 1.04241,1.09817 2.11873,2.16853 3.2207,3.21874 1.04567,1.10198 2.12484,2.17676 3.23047,3.23047 1.06124,1.11925 2.15625,2.21177 3.2793,3.28125 1.06506,1.12325 2.16565,2.21789 3.29297,3.29102 1.0774,1.13672 2.1909,2.24468 3.33203,3.33008 1.07753,1.13678 2.19077,2.24463 3.33203,3.33008 1.08945,1.15018 2.21448,2.27147 3.36914,3.36914 1.09238,1.15362 2.22094,2.27809 3.3789,3.3789 1.1076,1.1706 2.25266,2.31148 3.42774,3.42774 1.10898,1.17207 2.25696,2.31405 3.43359,3.43164 1.12583,1.19065 2.29073,2.34992 3.48633,3.48437 1.12,1.18418 2.27777,2.33818 3.4668,3.46678 1.14286,1.2098 2.32618,2.3873 3.54101,3.5391 1.14003,1.2062 2.31966,2.3827 3.53125,3.5312 1.15075,1.2184 2.34269,2.4049 3.56641,3.5645 1.15964,1.2282 2.35997,2.4233 3.59375,3.5918 1.16318,1.2323 2.36571,2.4332 3.60352,3.6054 1.17653,1.2474 2.39549,2.4607 3.64843,3.6465 1.1791,1.2502 2.4004,2.4679 3.65625,3.6563 1.18846,1.2608 2.42102,2.4875 3.6875,3.6855 1.20118,1.275 2.44564,2.5159 3.72656,3.7266 1.20202,1.2758 2.44861,2.5171 3.73047,3.7285 1.21781,1.2934 2.47947,2.552 3.7793,3.7793 1.21729,1.2926 2.48009,2.5508 3.7793,3.7773 1.22808,1.305 2.50096,2.5748 3.8125,3.8125 1.23911,1.3172 2.52355,2.599 3.84765,3.8477 1.23634,1.3143 2.51889,2.5918 3.83985,3.8379 1.25529,1.3359 2.55774,2.6349 3.90039,3.9004 1.26253,1.3435 2.57295,2.6495 3.92383,3.9219 1.26116,1.342 2.56865,2.6469 3.91797,3.9179 1.27693,1.3602 2.60329,2.6815 3.9707,3.9688 1.28532,1.3692 2.61911,2.7007 3.99609,3.9961 1.28256,1.3663 2.61445,2.6935 3.98828,3.9863 1.30144,1.388 2.65327,2.7367 4.04883,4.0488 1.30836,1.3953 2.66686,2.7517 4.07031,4.0703 1.3095,1.3966 2.67142,2.7526 4.07618,4.0723 1.32233,1.4112 2.69567,2.7824 4.11523,4.1152 1.32484,1.4142 2.70254,2.7876 4.125,4.1231 1.33913,1.4304 2.73098,2.8199 4.16992,4.1699 1.34153,1.433 2.73603,2.8255 4.17774,4.1777 1.35112,1.4441 2.75618,2.8469 4.20898,4.209 1.36416,1.4586 2.78412,2.8731 4.25195,4.2481 1.36339,1.4575 2.77917,2.874 4.2461,4.248 1.37295,1.4688 2.80125,2.8933 4.27929,4.2774 1.38353,1.4808 2.82415,2.9177 4.31446,4.3125 1.38855,1.4864 2.83395,2.9303 4.33008,4.33 1.39997,1.4994 2.8578,2.9541 4.36718,4.3653 1.39971,1.4992 2.85615,2.9542 4.36524,4.3652 1.41649,1.5186 2.89129,2.9918 4.41992,4.4199 1.41671,1.5187 2.89301,2.9917 4.42187,4.4199 1.43369,1.538 2.92794,3.0294 4.47657,4.4747 1.43248,1.5363 2.92352,3.0269 4.4707,4.4707 1.44484,1.5506 2.95009,3.0533 4.51172,4.5097 1.44675,1.5531 2.95369,3.0591 4.51758,4.5176 1.46155,1.5701 2.98519,3.0928 4.5664,4.5664 1.46447,1.5733 2.99158,3.0979 4.57618,4.5742 1.47484,1.5853 3.01262,3.1225 4.60937,4.6094 1.48058,1.5917 3.02545,3.1344 4.62891,4.627 1.49051,1.6031 3.04505,3.1556 4.66015,4.6582 1.49241,1.6054 3.04866,3.1613 4.66602,4.666 1.50716,1.6226 3.08013,3.1951 4.71484,4.7148 1.50838,1.624 3.08262,3.1979 4.71875,4.7188 1.52308,1.6408 3.11415,3.2299 4.76758,4.7656 1.5253,1.6432 3.11743,3.2338 4.77344,4.7715 1.53587,1.6554 3.1401,3.2602 4.80859,4.8086 1.53726,1.6572 3.14235,3.2625 4.8125,4.8125 1.55415,1.6768 3.17903,3.3 4.86914,4.8672 1.55476,1.6773 3.17835,3.3016 4.86914,4.8691 1.56309,1.6873 3.19775,3.3203 4.89844,4.8965 1.57537,1.7014 3.22228,3.3489 4.9375,4.9375 33.84716,36.5565 101.58821,48.0944 133.29297,-9.6973 19.58324,-35.6965 40.43513,-76.4953 55.07617,-105.6211 0.13984,0.1395 0.2888,0.2698 0.42969,0.4082 0.30701,0.3123 0.61555,0.6227 0.92773,0.9297 0.31288,0.3182 0.62707,0.6345 0.94531,0.9473 0.28335,0.2877 0.56969,0.5721 0.85743,0.8555 0.29809,0.3029 0.59742,0.6042 0.90039,0.9023 0.26828,0.2722 0.53832,0.5423 0.81054,0.8105 0.27568,0.2799 0.5522,0.5583 0.83204,0.834 0.26158,0.2653 0.52373,0.5295 0.78906,0.791 0.26104,0.2647 0.5243,0.5263 0.78906,0.7872 0.23914,0.2421 0.47844,0.4836 0.7207,0.7226 0.23873,0.2418 0.47887,0.482 0.72071,0.7207 0.22298,0.2257 0.44617,0.4508 0.67187,0.6738 0.2285,0.2314 0.45811,0.461 0.68946,0.6895 0.21241,0.2148 0.42575,0.4283 0.64062,0.6406 0.21184,0.2142 0.42439,0.427 0.63867,0.6387 0.19054,0.1924 0.38171,0.3838 0.57422,0.5742 0.18918,0.1911 0.37918,0.3812 0.57031,0.5703 0.17465,0.1763 0.34909,0.3527 0.52539,0.5274 0.17923,0.181 0.35809,0.3617 0.53907,0.541 0.1647,0.1661 0.32991,0.3314 0.49609,0.4961 0.16151,0.1628 0.3234,0.3249 0.48633,0.4863 0.13561,0.1366 0.27159,0.2726 0.4082,0.4082 0.14561,0.1468 0.29074,0.2938 0.4375,0.4395 0.13238,0.1333 0.26511,0.2661 0.39844,0.3984 0.12984,0.1307 0.25987,0.2609 0.39062,0.3906 0.10846,0.109 0.21708,0.2178 0.32618,0.3262 0.10097,0.1015 0.20121,0.2037 0.30273,0.3047 0.10552,0.1061 0.21028,0.2128 0.31641,0.3183 0.0906,0.091 0.18234,0.1809 0.27343,0.2715 0.0822,0.083 0.16351,0.1659 0.2461,0.2481 0.0738,0.074 0.14662,0.1489 0.2207,0.2226 0.0663,0.067 0.13267,0.133 0.19922,0.1992 0.0644,0.065 0.12875,0.1291 0.19336,0.1934 0.0361,0.036 0.0732,0.071 0.10937,0.1074 0.0478,0.048 0.0946,0.097 0.14258,0.1446 0.0397,0.04 0.0793,0.079 0.11914,0.1191 0.0114,0.011 0.0218,0.024 0.0332,0.035 0.0234,0.023 0.0468,0.047 0.0703,0.07 0.006,0.01 0.0114,0.013 0.0176,0.02 0.87371,0.872 1.76768,1.7225 2.68164,2.5527 13.90808,12.6504 32.39232,20.3653 52.67968,20.3653 36.4811,0 67.13319,-24.9374 75.82422,-58.6856 h 61.1875 c 1.2693,1.34 2.575,2.6429 3.9355,3.8906 1.5325,1.6713 3.1357,3.2758 4.8067,4.8086 1.5453,1.6871 3.1653,3.3054 4.8516,4.8516 1.5529,1.6962 3.1814,3.3231 4.8769,4.877 1.5592,1.7036 3.1956,3.3363 4.8984,4.8964 1.5742,1.7212 3.2246,3.3706 4.9454,4.9454 14.3155,15.6471 34.9046,25.4648 57.791,25.4648 15.017,0 29.0423,-4.2324 40.959,-11.5586 1.1368,1.1975 2.2953,2.3431 3.4765,3.4355 1.4508,1.5847 2.9473,3.0635 4.4727,4.4727 1.4569,1.5911 2.9601,3.0761 4.4922,4.4902 1.4603,1.595 2.966,3.0848 4.5019,4.502 1.4644,1.6003 2.9752,3.0923 4.5156,4.5137 1.4694,1.6073 2.9872,3.1061 4.5332,4.5332 1.4894,1.6312 3.0276,3.1498 4.5957,4.5957 1.4915,1.6331 3.0332,3.1542 4.6036,4.6015 1.4977,1.6409 3.0437,3.1676 4.6211,4.6211 1.5129,1.6588 3.0756,3.2025 4.6699,4.6699 1.513,1.6587 3.0756,3.2007 4.6699,4.668 1.5224,1.6702 3.0964,3.2248 4.7012,4.7012 1.5328,1.6825 3.1179,3.2464 4.7343,4.7324 1.5436,1.6947 3.1394,3.2703 4.7676,4.7656 1.5509,1.7027 3.1527,3.2877 4.7891,4.7891 1.5542,1.7062 3.1608,3.2946 4.8008,4.7988 1.5642,1.7182 3.1808,3.3186 4.832,4.8321 1.5719,1.7271 3.1957,3.3331 4.8555,4.8535 1.5831,1.74 3.2183,3.3604 4.8906,4.8906 1.5852,1.7421 3.222,3.3627 4.8965,4.8945 1.5965,1.7557 3.2464,3.3914 4.9336,4.9336 51.7262,56.8927 153.5827,0.1572 140.4277,-66.1758 -8.7694,-44.2122 -20.4243,-150.5373 -38.2949,-248.3437 l -3.543,2.90039 c -0.4665,-2.61156 -0.9193,-5.23705 -1.3945,-7.83789 l -3.5254,2.88672 c -0.4643,-2.59914 -0.9157,-5.21226 -1.3887,-7.80078 l -3.5078,2.87109 c -0.4619,-2.5854 -0.9104,-5.18488 -1.3809,-7.75976 l -3.4882,2.85547 c -0.4596,-2.57177 -0.907,-5.1574 -1.375,-7.71875 l -3.4727,2.8418 c -0.4573,-2.55893 -0.9015,-5.13109 -1.3672,-7.67969 l -3.4531,2.82812 c -0.4551,-2.54656 -0.8979,-5.10624 -1.3613,-7.64258 l -3.4356,2.8125 c -0.4528,-2.53318 -0.8925,-5.08045 -1.3535,-7.60351 l -3.418,2.79883 c -0.4503,-2.51949 -0.8871,-5.05304 -1.3457,-7.5625 l -3.4004,2.7832 c -0.4481,-2.50645 -0.8836,-5.02692 -1.3398,-7.52344 l -3.3828,2.76953 c -0.4458,-2.49338 -0.8783,-5.00082 -1.332,-7.48437 l -3.3653,2.75586 c -0.4436,-2.48098 -0.8746,-4.97603 -1.3261,-7.44727 l -3.3477,2.74024 c -0.2506,-1.40144 -0.4949,-2.80855 -0.748,-4.20703 h 1.2734 c -5.5315,-35.72081 -8.0836,-53.58102 -10.6367,-66.76368 -0.7372,-3.8068 -3.1512,-7.07782 -6.9727,-9.81054 -1.1977,-1.80227 -2.8525,-3.44541 -4.9258,-4.92969 -1.194,-1.79125 -2.8386,-3.42751 -4.8984,-4.9043 -1.1904,-1.78112 -2.8278,-3.40706 -4.875,-4.87695 -1.1867,-1.77105 -2.813,-3.39048 -4.8477,-4.85352 -1.183,-1.7613 -2.8017,-3.37369 -4.8242,-4.83007 -1.1794,-1.75135 -2.7886,-3.35317 -4.7988,-4.80274 -1.1759,-1.74188 -2.7789,-3.33621 -4.7774,-4.7793 -1.172,-1.73177 -2.7622,-3.31775 -4.748,-4.7539 -1.1686,-1.72277 -2.7519,-3.30051 -4.7266,-4.73047 -1.165,-1.71293 -2.7384,-3.28388 -4.7011,-4.70703 -1.161,-1.70209 -2.7264,-3.26403 -4.6758,-4.67969 -1.1573,-1.69239 -2.7149,-3.24731 -4.6524,-4.65625 -1.1533,-1.6823 -2.6999,-3.22892 -4.625,-4.63086 -1.1496,-1.67293 -2.6881,-3.21004 -4.6015,-4.60547 -1.1461,-1.66369 -2.6761,-3.19302 -4.5781,-4.58203 -1.1422,-1.65357 -2.663,-3.17471 -4.5528,-4.55664 -1.138,-1.6433 -2.6503,-3.1565 -4.5273,-4.53125 -1.1342,-1.63365 -2.6386,-3.13983 -4.5039,-4.50781 -1.1301,-1.62362 -2.6237,-3.12148 -4.4766,-4.48242 -1.126,-1.61396 -2.6102,-3.10287 -4.4512,-4.45704 -1.1225,-1.6053 -2.6012,-3.08552 -4.4316,-4.43359 -1.1177,-1.59393 -2.5841,-3.06621 -4.4004,-4.40625 -1.1131,-1.58401 -2.5752,-3.0478 -4.3789,-4.38086 -1.1088,-1.57451 -2.5599,-3.02911 -4.3516,-4.35547 -1.1033,-1.56372 -2.5467,-3.00935 -4.3242,-4.32812 -1.0995,-1.55627 -2.537,-2.99508 -4.3047,-4.3086 -1.0947,-1.54558 -2.5249,-2.97533 -4.2793,-4.28125 -1.0904,-1.53657 -2.511,-2.95829 -4.2539,-4.25781 -1.0857,-1.52665 -2.4962,-2.93997 -4.2265,-4.23242 -1.0807,-1.51659 -2.4858,-2.91979 -4.2032,-4.20508 -1.0766,-1.50838 -2.4747,-2.90417 -4.1816,-4.18359 -1.0713,-1.49746 -2.4574,-2.88466 -4.1504,-4.15625 -1.0669,-1.48913 -2.4487,-2.86718 -4.1309,-4.13281 -1.0623,-1.47972 -2.435,-2.85052 -4.1054,-4.10938 -1.0578,-1.47011 -2.4236,-2.83401 -4.0821,-4.08594 -1.053,-1.46009 -2.4086,-2.81392 -4.0546,-4.05859 -1.048,-1.45039 -2.3957,-2.79554 -4.0293,-4.0332 -1.0434,-1.44123 -2.3857,-2.77876 -4.0078,-4.00977 -1.0387,-1.4317 -2.3703,-2.76029 -3.9805,-3.98437 -1.0336,-1.42203 -2.3572,-2.74194 -3.9551,-3.95899 -1.0285,-1.41244 -2.3459,-2.72548 -3.9316,-3.93555 -1.0242,-1.40371 -2.3333,-2.70647 -3.9082,-3.91015 -1.0192,-1.39401 -2.3181,-2.69016 -3.8809,-3.88672 -1.014,-1.38408 -2.307,-2.67206 -3.8574,-3.86133 -1.0092,-1.37488 -2.2931,-2.65343 -3.8321,-3.83594 -1.0042,-1.36561 -2.2812,-2.63487 -3.8085,-3.81054 -0.9992,-1.35589 -2.268,-2.61863 -3.7833,-3.78711 -0.9933,-1.34549 -2.2519,-2.597 -3.7539,-3.75782 -0.9893,-1.33828 -2.2435,-2.58279 -3.7363,-3.73828 -0.9839,-1.32795 -2.2269,-2.56509 -3.707,-3.71289 -0.9785,-1.31817 -2.2158,-2.54502 -3.6836,-3.68554 -0.9741,-1.31009 -2.2043,-2.52957 -3.6621,-3.66407 -0.9688,-1.29999 -2.1874,-2.51174 -3.6328,-3.63867 -0.9633,-1.28997 -2.1763,-2.49385 -3.6094,-3.61328 -0.9577,-1.28008 -2.1633,-2.47393 -3.584,-3.58594 -0.9536,-1.27277 -2.1508,-2.45988 -3.5625,-3.5664 -0.9481,-1.26226 -2.1362,-2.4405 -3.5351,-3.53907 -0.9433,-1.25353 -2.1234,-2.42364 -3.5118,-3.51562 -0.9378,-1.24352 -2.1101,-2.40585 -3.4863,-3.49024 -0.9312,-1.23249 -2.0928,-2.38293 -3.4551,-3.45898 -0.9277,-1.22679 -2.0864,-2.37163 -3.4414,-3.44336 -0.9215,-1.21544 -2.0688,-2.35099 -3.4101,-3.41406 -0.9166,-1.20694 -2.0578,-2.33403 -3.3887,-3.39063 -0.9107,-1.19647 -2.0412,-2.31664 -3.3594,-3.36523 -0.906,-1.18859 -2.0314,-2.29924 -3.3398,-3.3418 -0.9015,-1.18004 -2.0179,-2.28434 -3.3164,-3.32031 -0.8963,-1.17021 -2.004,-2.2646 -3.291,-3.29297 -0.8911,-1.1608 -1.9897,-2.24843 -3.2657,-3.26953 -0.8864,-1.15214 -1.9781,-2.23171 -3.2441,-3.24609 -0.8811,-1.14196 -1.9624,-2.21425 -3.2168,-3.22071 -0.8763,-1.13322 -1.951,-2.19565 -3.1953,-3.19531 -0.8708,-1.12304 -1.9335,-2.1782 -3.166,-3.16992 -0.8661,-1.11446 -1.9219,-2.16147 -3.1446,-3.14649 -0.862,-1.10655 -1.9091,-2.14815 -3.123,-3.12695 -0.8549,-1.09361 -1.8927,-2.12316 -3.0918,-3.0918 -0.8515,-1.08736 -1.8802,-2.11244 -3.0723,-3.07617 -0.8445,-1.07509 -1.8612,-2.09086 -3.039,-3.04492 -0.8404,-1.06793 -1.854,-2.07307 -3.0235,-3.02148 -0.8338,-1.05666 -1.8338,-2.05658 -2.9902,-2.9961 -0.83,-1.04997 -1.8259,-2.04039 -2.97462,-2.97461 -0.82428,-1.03972 -1.80807,-2.02315 -2.94531,-2.94922 -0.81775,-1.02886 -1.79147,-2.00247 -2.91602,-2.91992 -0.81444,-1.02292 -1.78442,-1.98963 -2.90234,-2.90234 -0.8088,-1.01254 -1.7665,-1.97256 -2.87305,-2.87695 -0.80303,-1.00252 -1.7524,-1.95324 -2.84766,-2.84961 -0.7977,-0.99331 -1.73737,-1.93719 -2.82226,-2.82618 -0.79189,-0.98341 -1.72318,-1.91779 -2.79688,-2.79882 -0.78637,-0.97436 -1.70819,-1.90164 -2.77148,-2.77539 -0.78141,-0.96589 -1.69619,-1.88504 -2.75,-2.75196 -0.77385,-0.95383 -1.67893,-1.86155 -2.71875,-2.71875 -0.77047,-0.94835 -1.66761,-1.85231 -2.70117,-2.70508 -0.76388,-0.93735 -1.65065,-1.83194 -2.67188,-2.67578 -0.75817,-0.9283 -1.63761,-1.81389 -2.64844,-2.65039 -0.75319,-0.92007 -1.62336,-1.79911 -2.625,-2.6289 -0.74709,-0.91011 -1.60913,-1.77991 -2.59961,-2.60157 -0.74009,-0.89946 -1.59224,-1.75928 -2.57031,-2.57226 -0.73656,-0.89366 -1.58305,-1.74842 -2.55469,-2.55664 -0.7304,-0.88337 -1.56693,-1.72953 -2.52734,-2.5293 -0.72229,-0.87114 -1.54789,-1.70636 -2.49414,-2.49609 -0.71915,-0.86626 -1.53779,-1.69866 -2.47852,-2.48438 -0.71285,-0.85593 -1.52365,-1.67789 -2.45312,-2.45508 -0.70601,-0.84538 -1.50625,-1.65731 -2.42383,-2.42578 -0.69837,-0.83464 -1.48973,-1.63688 -2.39453,-2.39648 -0.69126,-0.82511 -1.47406,-1.6174 -2.36719,-2.36914 -0.68696,-0.81935 -1.46545,-1.60654 -2.35156,-2.35352 -0.67776,-0.80657 -1.44545,-1.58004 -2.31641,-2.3164 -0.67371,-0.80151 -1.43624,-1.57057 -2.30078,-2.30274 -0.6677,-0.79269 -1.42282,-1.55254 -2.27734,-2.27734 -0.66036,-0.78224 -1.40557,-1.53589 -2.24805,-2.25196 -0.65369,-0.77304 -1.39096,-1.51624 -2.22265,-2.22461 -0.6464,-0.76341 -1.3752,-1.49696 -2.19532,-2.19726 -0.6427,-0.75821 -1.36748,-1.48767 -2.18164,-2.18359 -0.63563,-0.74778 -1.35169,-1.4672 -2.15429,-2.1543 -0.6265,-0.73541 -1.32902,-1.44442 -2.11719,-2.12109 -0.61935,-0.72666 -1.31649,-1.42446 -2.09375,-2.09376 -0.61412,-0.72028 -1.3049,-1.41225 -2.07422,-2.07617 -0.60985,-0.71421 -1.29604,-1.39983 -2.05859,-2.05859 -0.60285,-0.70405 -1.27789,-1.38311 -2.0293,-2.0332 -0.59549,-0.69385 -1.26202,-1.36253 -2.00195,-2.00391 -0.58534,-0.68079 -1.24227,-1.33656 -1.9668,-1.9668 -0.58083,-0.67569 -1.23127,-1.32526 -1.94922,-1.95117 -0.57432,-0.66733 -1.21762,-1.30899 -1.92578,-1.92773 -0.56997,-0.6613 -1.20867,-1.29661 -1.91016,-1.91016 -0.56175,-0.64996 -1.18799,-1.27709 -1.87695,-1.88086 -0.55608,-0.64227 -1.17702,-1.26224 -1.85742,-1.85937 -0.54642,-0.62965 -1.15427,-1.23801 -1.82031,-1.82422 -0.54058,-0.62259 -1.14517,-1.22066 -1.80274,-1.80078 -0.53274,-0.6128 -1.12727,-1.20376 -1.77344,-1.77539 -0.52744,-0.6063 -1.11538,-1.18988 -1.7539,-1.75586 -0.52225,-0.59928 -1.10352,-1.17843 -1.73438,-1.73829 -0.5123,-0.5863 -1.08282,-1.15068 -1.69922,-1.69921 -0.5092,-0.58241 -1.07554,-1.14433 -1.6875,-1.68946 -0.49714,-0.56693 -1.04988,-1.11493 -1.64453,-1.64648 -0.4966,-0.56634 -1.04868,-1.1135 -1.64258,-1.64453 -0.4845,-0.55056 -1.02105,-1.08248 -1.59765,-1.59961 -0.47968,-0.5449 -1.01211,-1.06988 -1.58203,-1.58203 -0.47301,-0.53637 -0.99612,-1.05594 -1.55664,-1.56055 -0.46233,-0.52324 -0.97579,-1.02849 -1.52149,-1.52148 -0.45999,-0.52069 -0.96917,-1.02294 -1.51172,-1.51368 -0.45132,-0.50956 -0.95193,-1.00158 -1.48242,-1.48242 -0.44239,-0.49868 -0.93094,-0.98197 -1.44922,-1.45312 -0.43771,-0.49317 -0.92163,-0.96931 -1.43359,-1.43555 -0.42975,-0.48333 -0.90512,-0.9488 -1.40625,-1.40625 -0.42303,-0.47516 -0.8888,-0.93463 -1.38086,-1.38477 -0.41653,-0.46711 -0.87608,-0.91842 -1.35938,-1.36132 -0.40849,-0.4573 -0.85949,-0.89796 -1.33203,-1.33204 -0.40144,-0.44883 -0.84345,-0.88214 -1.30664,-1.30859 -0.39518,-0.4412 -0.83026,-0.86755 -1.28515,-1.28711 -0.38795,-0.43236 -0.81444,-0.85016 -1.25977,-1.26172 -0.37742,-0.41988 -0.79302,-0.82436 -1.22461,-1.22461 -0.38085,-0.4237 -0.80032,-0.83262 -1.23633,-1.23632 -0.37274,-0.4124 -0.77996,-0.81168 -1.20508,-1.20508 -0.35902,-0.39534 -0.74898,-0.78037 -1.15625,-1.15821 -0.35977,-0.3958 -0.75005,-0.77995 -1.1582,-1.1582 -0.34928,-0.38232 -0.72658,-0.75518 -1.12109,-1.12109 -0.33829,-0.36917 -0.70151,-0.73014 -1.08203,-1.08399 -0.33815,-0.36866 -0.70176,-0.7267 -1.08204,-1.08008 -0.33242,-0.36078 -0.68573,-0.71444 -1.05859,-1.06054 -0.32254,-0.34831 -0.66313,-0.6908 -1.02344,-1.02539 -0.30607,-0.32939 -0.62883,-0.6536 -0.96875,-0.97071 -0.3119,-0.33606 -0.64313,-0.66499 -0.99023,-0.98828 -0.29853,-0.31985 -0.61091,-0.63511 -0.94141,-0.94336 -0.29439,-0.31476 -0.60235,-0.62422 -0.92773,-0.92773 -0.28165,-0.30001 -0.57491,-0.595 -0.88477,-0.88477 -0.27815,-0.29601 -0.56743,-0.58701 -0.87304,-0.87304 -0.27371,-0.29041 -0.55725,-0.57664 -0.85743,-0.85742 -0.26219,-0.27701 -0.53202,-0.55208 -0.81835,-0.82032 -0.26178,-0.27593 -0.53067,-0.54919 -0.81641,-0.8164 -0.24237,-0.25405 -0.48921,-0.50727 -0.75195,-0.75391 -0.24218,-0.2539 -0.48943,-0.50545 -0.75196,-0.75195 -0.23305,-0.24355 -0.4689,-0.48593 -0.7207,-0.72266 -0.22959,-0.23931 -0.46323,-0.47626 -0.71094,-0.70898 -0.21849,-0.22676 -0.43903,-0.45301 -0.67383,-0.67383 -0.21161,-0.21904 -0.42354,-0.43885 -0.65039,-0.65235 -0.20133,-0.20775 -0.40212,-0.41638 -0.61718,-0.61914 -0.19633,-0.2022 -0.39223,-0.40409 -0.60157,-0.60156 -0.18816,-0.19324 -0.37415,-0.38727 -0.57422,-0.57617 -0.18334,-0.18776 -0.36595,-0.37493 -0.56054,-0.55859 -0.16975,-0.17314 -0.3363,-0.34794 -0.51563,-0.51758 -0.17214,-0.17534 -0.34146,-0.35169 -0.52344,-0.52344 -0.15193,-0.15382 -0.29945,-0.30988 -0.45898,-0.46094 -0.14921,-0.151 -0.29464,-0.30283 -0.45117,-0.45117 -0.14175,-0.14308 -0.27941,-0.28705 -0.42774,-0.42773 -0.13078,-0.13163 -0.25621,-0.26494 -0.39257,-0.39454 -0.13356,-0.13421 -0.26299,-0.27023 -0.40235,-0.40234 -0.11349,-0.11331 -0.2222,-0.22804 -0.33984,-0.33984 -0.11094,-0.11067 -0.21714,-0.22281 -0.33203,-0.33203 -0.0972,-0.0967 -0.18884,-0.19547 -0.28906,-0.29102 -0.0991,-0.0985 -0.19268,-0.19956 -0.29493,-0.29687 -0.0889,-0.0879 -0.17418,-0.1767 -0.26562,-0.26368 -0.0689,-0.0678 -0.1327,-0.1378 -0.20313,-0.20507 -0.0738,-0.0727 -0.1432,-0.14667 -0.21875,-0.21875 -0.064,-0.0628 -0.12411,-0.12715 -0.18945,-0.18946 -0.0491,-0.0479 -0.0947,-0.0969 -0.14453,-0.14453 -0.0445,-0.0433 -0.0858,-0.0877 -0.13086,-0.13086 -0.0356,-0.0346 -0.0675,-0.071 -0.10352,-0.10547 -0.028,-0.0272 -0.0538,-0.055 -0.082,-0.082 -0.0165,-0.0159 -0.0303,-0.0329 -0.0469,-0.0488 -8.42009,-8.12721 -27.69211,-12.29297 -52.82813,-12.29296 z"
     id="path113544-3"
     clip-path="url(#clipPath131180)" />
  <g
     id="g131148">
    <g
       id="g5044">
      <path
         id="path3258"
         d="m 715.76057,326.39773 h 107.90577 l -8.45657,-13.89558 c -5.54449,-9.11055 -19.95754,-15.8718 -45.49626,-15.8718 -25.53894,0 -39.95189,6.76125 -45.49636,15.8718 z"
         stroke-miterlimit="4"
         inkscape:connector-curvature="0"
         style="fill:#333333;fill-opacity:1;fill-rule:evenodd;stroke:none;stroke-width:1.52970338;stroke-miterlimit:4" />
      <path
         d="m 252.39179,326.39773 h 107.90568 l -8.45655,-13.89558 c -5.54439,-9.11055 -19.95746,-15.8718 -45.49626,-15.8718 -25.53884,0 -39.95179,6.76125 -45.4963,15.8718 z"
         id="path3234"
         stroke-miterlimit="4"
         inkscape:connector-curvature="0"
         style="fill:#333333;fill-opacity:1;fill-rule:evenodd;stroke:none;stroke-width:1.52970338;stroke-miterlimit:4" />
    </g>
    <g
       id="g125017">
      <path
         style="fill:#e6e6e6;fill-rule:evenodd;stroke:none;stroke-width:1.52970338;stroke-linecap:round;stroke-linejoin:round;stroke-miterlimit:4"
         inkscape:connector-curvature="0"
         stroke-miterlimit="4"
         id="rect3225"
         d="m 341.7765,372.30327 c -4.99928,0 -8.95146,4.05155 -8.95146,9.04782 V 619.3393 c 0,4.99624 3.95218,8.94614 8.95146,8.94614 h 396.40648 c 4.99922,0 9.05316,-3.9499 9.05316,-8.94614 V 381.35109 c 0,-4.99627 -4.05394,-9.04782 -9.05316,-9.04782 H 566.28793 c -0.8863,1.46086 -2.53272,2.43987 -4.37393,2.43987 h -46.58761 c -1.8363,0 -3.38436,-0.98544 -4.27226,-2.43987 z" />
      <path
         id="rect3318"
         d="M 357.5776,392.76855 H 722.422 c 2.35007,0 4.242,1.82769 4.242,4.09795 v 214.5934 c 0,2.27026 -1.89193,4.09795 -4.242,4.09795 H 357.5776 c -2.35007,0 -4.242,-1.82769 -4.242,-4.09795 V 396.8665 c 0,-2.27026 1.89193,-4.09795 4.242,-4.09795 z"
         style="fill:#e6e6e6;fill-rule:evenodd;stroke:none;stroke-width:1.52970338;stroke-linecap:round;stroke-linejoin:round;stroke-miterlimit:4" />
      <path
         style="fill:#e6e6e6;fill-rule:evenodd;stroke:none;stroke-width:1.52970338;stroke-miterlimit:4"
         inkscape:connector-curvature="0"
         stroke-miterlimit="4"
         id="path3206"
         d="m 186.56665,445.45861 c -17.871,97.80713 -29.52649,202.4315 -38.29494,248.34491 -13.7537,72.01705 106.67008,132.55569 152.32868,49.3288 34.6625,-63.18308 74.03694,-143.73385 74.03694,-143.73385 z" />
      <path
         style="fill:#e6e6e6;fill-rule:evenodd;stroke:none;stroke-width:1.52970338;stroke-miterlimit:4"
         inkscape:connector-curvature="0"
         stroke-miterlimit="4"
         d="m 374.21176,391.0354 c -5.53146,-35.72081 -8.08442,-53.58127 -10.63748,-66.76393 -2.55294,-13.18277 -25.10438,-19.98669 -57.22962,-19.98669 -32.12516,0 -54.67661,6.80392 -57.22967,19.98669 -2.55296,13.18266 -5.106,31.04312 -10.63748,66.76393"
         id="path3229" />
      <path
         style="fill:#e6e6e6;fill-rule:evenodd;stroke:none;stroke-width:1.52970338;stroke-linecap:round;stroke-linejoin:round;stroke-miterlimit:4"
         inkscape:connector-curvature="0"
         stroke-miterlimit="4"
         d="m 429.95237,476.07659 c 0,68.10878 -55.24581,123.32188 -123.39486,123.32188 -68.14909,0 -123.39484,-55.2131 -123.39484,-123.32188 0,-68.1089 55.24575,-123.32203 123.39484,-123.32203 68.14905,0 123.39486,55.21313 123.39486,123.32203 z"
         id="path2416" />
      <path
         style="fill:#e6e6e6;fill-rule:evenodd;stroke:none;stroke-width:1.52970338;stroke-miterlimit:4"
         inkscape:connector-curvature="0"
         stroke-miterlimit="4"
         id="path3260"
         d="m 837.58056,391.0354 c -5.5315,-35.72081 -8.08446,-53.58127 -10.63754,-66.76393 -2.55294,-13.18277 -25.10437,-19.98669 -57.22966,-19.98669 -32.12512,0 -54.67657,6.80392 -57.22959,19.98669 -2.55297,13.18266 -5.10597,31.04312 -10.6375,66.76393" />
      <path
         style="fill:#e6e6e6;fill-rule:evenodd;stroke:none;stroke-width:1.52970338;stroke-linecap:round;stroke-linejoin:round;stroke-miterlimit:4"
         inkscape:connector-curvature="0"
         stroke-miterlimit="4"
         id="path3208"
         d="m 503.13827,595.99666 c 0,43.21386 -35.0525,78.24566 -78.29192,78.24566 -43.23944,0 -78.29194,-35.0318 -78.29194,-78.24566 0,-43.2139 35.0525,-78.24573 78.29194,-78.24573 43.23942,0 78.29192,35.03182 78.29192,78.24573 z" />
      <path
         style="fill:#e6e6e6;fill-rule:evenodd;stroke:none;stroke-width:1.52970338;stroke-miterlimit:4"
         inkscape:connector-curvature="0"
         stroke-miterlimit="4"
         d="m 893.35902,445.45897 c 17.87062,97.80637 29.52582,204.1322 38.29514,248.34441 C 945.91673,765.72105 824.984,826.35893 779.32421,743.13245 744.66312,679.94991 705.28764,599.39808 705.28764,599.39808 Z"
         id="path3223" />
      <path
         style="fill:#e6e6e6;fill-rule:evenodd;stroke:none;stroke-width:1.52970338;stroke-linecap:round;stroke-linejoin:round;stroke-miterlimit:4"
         inkscape:connector-curvature="0"
         stroke-miterlimit="4"
         id="path3221"
         d="m 649.97305,476.07659 c 0,68.10878 55.24577,123.32188 123.39485,123.32188 68.14909,0 123.39484,-55.2131 123.39484,-123.32188 0,-68.1089 -55.24575,-123.32203 -123.39484,-123.32203 -68.14908,0 -123.39485,55.21313 -123.39485,123.32203 z" />
      <path
         style="fill:#e6e6e6;fill-rule:evenodd;stroke:none;stroke-width:1.52970338;stroke-linecap:round;stroke-linejoin:round;stroke-miterlimit:4"
         inkscape:connector-curvature="0"
         stroke-miterlimit="4"
         d="m 731.20598,595.99666 c 0,43.21386 -35.05264,78.24566 -78.29196,78.24566 -43.23947,0 -78.29194,-35.0318 -78.29194,-78.24566 0,-43.2139 35.05246,-78.24573 78.29194,-78.24573 43.23932,0 78.29196,35.03182 78.29196,78.24573 z"
         id="path3289" />
    </g>
    <path
       style="fill:#b3b3b3;fill-rule:evenodd;stroke:none;stroke-width:1.52970338;stroke-linecap:round;stroke-linejoin:round;stroke-miterlimit:4"
       inkscape:connector-curvature="0"
       stroke-miterlimit="4"
       d="m 748.03938,384.93751 c -4.99929,0 -9.05316,4.05156 -9.05316,9.04786 v 47.67904 h -47.80881 c -4.99933,0 -8.95156,4.05138 -8.95146,9.04782 v 50.72879 c 0,4.99629 3.95222,9.04781 8.95146,9.04781 h 47.80881 v 47.67898 c 0,4.99628 4.05387,9.04764 9.05316,9.04783 h 50.75876 c 4.99925,0 8.95132,-4.05155 8.95146,-9.04783 v -47.67898 h 47.80879 c 4.99926,0 8.95148,-4.05152 8.95148,-9.04781 v -50.72879 c 0,-4.99644 -3.95222,-9.04782 -8.95148,-9.04782 H 807.7496 v -47.67904 c 0,-4.9963 -3.95221,-9.04786 -8.95146,-9.04786 z"
       id="path3219" />
    <path
       style="fill:#b3b3b3;fill-rule:evenodd;stroke:none;stroke-width:1.52970338;stroke-linecap:round;stroke-linejoin:round;stroke-miterlimit:4"
       inkscape:connector-curvature="0"
       stroke-miterlimit="4"
       id="rect3214"
       d="m 280.64648,383.36883 c -4.99924,0 -9.05315,4.05144 -9.05315,9.04783 v 47.67897 H 223.7845 c -4.99923,0 -8.95146,4.05151 -8.95146,9.04784 v 50.72876 c 0,4.9963 3.95223,9.04785 8.95146,9.04785 h 47.80883 v 47.67896 c 0,4.99628 4.05383,9.04782 9.05315,9.04782 h 50.75878 c 4.99922,0 8.95144,-4.05154 8.95144,-9.04782 v -47.67896 h 47.80883 c 4.99923,0 8.95144,-4.05155 8.95144,-9.04785 v -50.72876 c 0,-4.99633 -3.95212,-9.04784 -8.95144,-9.04784 H 340.3567 v -47.67897 c 0,-4.9963 -3.95222,-9.04783 -8.95144,-9.04783 z" />
    <g
       id="g5026">
      <path
         id="path3210"
         d="m 477.60835,595.99668 c 0,29.12239 -23.62232,52.73079 -52.762,52.73079 -29.13957,0 -52.76193,-23.6084 -52.76193,-52.73077 0,-29.12237 23.62236,-52.73079 52.76193,-52.73079 29.13968,0 52.762,23.60842 52.762,52.73077 z"
         stroke-miterlimit="4"
         inkscape:connector-curvature="0"
         style="fill:#333333;fill-rule:evenodd;stroke:none;stroke-width:1.52970338;stroke-linecap:round;stroke-linejoin:round;stroke-miterlimit:4" />
      <path
         d="m 705.676,595.99668 c 0,29.12239 -23.62231,52.73079 -52.76197,52.73079 -29.13969,0 -52.76197,-23.6084 -52.76197,-52.73077 0,-29.12237 23.62228,-52.73079 52.76197,-52.73079 29.13966,0 52.76197,23.60842 52.76197,52.73077 z"
         id="path3293"
         stroke-miterlimit="4"
         inkscape:connector-curvature="0"
         style="fill:#333333;fill-rule:evenodd;stroke:none;stroke-width:1.52970338;stroke-linecap:round;stroke-linejoin:round;stroke-miterlimit:4" />
    </g>
    <g
       id="g4976"
       style="fill:#333333"
       transform="matrix(1.1408171,0,0,1.1408171,-62.320633,-102.05368)">
      <rect
         id="rect3236"
         width="33.195015"
         height="19.010637"
         x="447.92004"
         y="508.27289"
         rx="2.1039691"
         ry="2.1027277"
         stroke-miterlimit="4"
         style="fill:#333333;fill-rule:evenodd;stroke:none;stroke-width:1.34088397;stroke-linecap:round;stroke-linejoin:round;stroke-miterlimit:4" />
      <path
         d="m 601.21388,517.77817 -24.24357,9.50544 c -2.30827,0.90505 -4.47575,-1.99511 -4.47575,-4.47321 v -10.06446 c 0,-2.47808 2.16748,-5.37807 4.47575,-4.47303 z"
         id="rect3238"
         stroke-miterlimit="4"
         inkscape:connector-curvature="0"
         style="fill:#333333;fill-rule:evenodd;stroke:none;stroke-width:1.34088397;stroke-linecap:round;stroke-linejoin:round;stroke-miterlimit:4" />
      <path
         id="path3244"
         d="m 756.03264,456.44618 c 0,12.96968 -10.52022,23.48374 -23.49757,23.48374 -12.97733,0 -23.49757,-10.51406 -23.49757,-23.48374 0,-12.96965 10.52024,-23.48372 23.49757,-23.48372 12.97735,0 23.49757,10.51407 23.49757,23.48372 z"
         stroke-miterlimit="4"
         inkscape:connector-curvature="0"
         style="fill:#333333;fill-rule:evenodd;stroke:none;stroke-width:1.34088397;stroke-linecap:round;stroke-linejoin:round;stroke-miterlimit:4" />
      <path
         d="m 756.03264,557.46352 c 0,12.96967 -10.52022,23.48368 -23.49757,23.48368 -12.97733,0 -23.49757,-10.51403 -23.49757,-23.48368 0,-12.96969 10.52024,-23.48375 23.49757,-23.48375 12.97735,0 23.49757,10.51406 23.49757,23.48375 z"
         id="path3246"
         stroke-miterlimit="4"
         inkscape:connector-curvature="0"
         style="fill:#333333;fill-rule:evenodd;stroke:none;stroke-width:1.34088397;stroke-linecap:round;stroke-linejoin:round;stroke-miterlimit:4" />
      <path
         d="m 759.57592,506.95479 c 0,-12.96967 10.52025,-23.4837 23.49758,-23.4837 12.97731,0 23.49757,10.51403 23.49757,23.4837 0,12.96969 -10.52026,23.48372 -23.49757,23.48372 -12.97733,0 -23.49758,-10.51403 -23.49758,-23.48372 z"
         id="path3248"
         stroke-miterlimit="4"
         inkscape:connector-curvature="0"
         style="fill:#333333;fill-rule:evenodd;stroke:none;stroke-width:1.34088397;stroke-linecap:round;stroke-linejoin:round;stroke-miterlimit:4" />
      <path
         id="path3250"
         d="m 658.49898,506.95479 c 0,-12.96967 10.52022,-23.4837 23.49759,-23.4837 12.9773,0 23.49755,10.51403 23.49755,23.4837 0,12.96969 -10.52025,23.48372 -23.49755,23.48372 -12.97737,0 -23.49759,-10.51403 -23.49759,-23.48372 z"
         stroke-miterlimit="4"
         inkscape:connector-curvature="0"
         style="fill:#333333;fill-rule:evenodd;stroke:none;stroke-width:1.34088397;stroke-linecap:round;stroke-linejoin:round;stroke-miterlimit:4" />
      <g
         transform="matrix(1.3412798,0,0,1.3404884,103.32006,258.46013)"
         id="g5204"
         style="fill:#333333;stroke:none">
        <path
           d="m 183.48657,172.27525 c -0.71321,0.061 -1.3663,0.42392 -1.79489,0.99716 l -7.4455,9.43981 c -0.69332,0.90147 -0.69332,2.15649 0,3.05797 l 7.4455,9.50628 c 0.47235,0.62583 1.21022,0.99483 1.99432,0.99717 l 17.28415,0.0665 c 0.67147,0.005 1.31684,-0.25967 1.79166,-0.7345 0.47482,-0.47482 0.73936,-1.12025 0.7345,-1.79164 v -18.68019 c 0.0103,-1.37357 -1.08637,-2.49979 -2.45967,-2.52615 l -17.28417,-0.33239 c -0.0885,-0.005 -0.17735,-0.005 -0.2659,0 z"
           id="path3322"
           stroke-miterlimit="4"
           inkscape:connector-curvature="0"
           style="fill:#333333;fill-rule:evenodd;stroke:none;stroke-linecap:round;stroke-linejoin:round;stroke-miterlimit:4" />
        <path
           id="path3324"
           d="m 143.83508,172.08624 c 0.71308,0.061 1.36617,0.42392 1.79489,0.99716 l 7.4455,9.43981 c 0.69333,0.90147 0.69333,2.15649 0,3.05797 l -7.4455,9.50628 c -0.47235,0.62583 -1.21035,0.99483 -1.99432,0.99717 l -17.28416,0.0665 c -0.67153,0.005 -1.31682,-0.25967 -1.79178,-0.7345 -0.47469,-0.47482 -0.7393,-1.12025 -0.73436,-1.79165 V 174.9448 c -0.0104,-1.37357 1.08623,-2.4998 2.45967,-2.52615 l 17.28415,-0.33239 c 0.0886,-0.005 0.17736,-0.005 0.26591,0 z"
           stroke-miterlimit="4"
           inkscape:connector-curvature="0"
           style="fill:#333333;fill-rule:evenodd;stroke:none;stroke-linecap:round;stroke-linejoin:round;stroke-miterlimit:4" />
        <path
           id="path3332"
           d="m 175.59706,204.03726 c -0.061,-0.71319 -0.42404,-1.36629 -0.99716,-1.79489 l -9.43981,-7.44548 c -0.90161,-0.69334 -2.15663,-0.69334 -3.05796,0 l -9.50629,7.44548 c -0.62582,0.47235 -0.99483,1.21024 -0.99716,1.99432 l -0.0665,17.28417 c -0.005,0.67146 0.25968,1.31682 0.73438,1.79164 0.47494,0.47482 1.12024,0.73936 1.79178,0.7345 h 18.68017 c 1.37345,0.0103 2.49967,-1.08635 2.52616,-2.45966 l 0.33238,-17.28416 c 0.005,-0.0885 0.005,-0.17737 0,-0.26592 z"
           stroke-miterlimit="4"
           inkscape:connector-curvature="0"
           style="fill:#333333;fill-rule:evenodd;stroke:none;stroke-linecap:round;stroke-linejoin:round;stroke-miterlimit:4" />
        <path
           d="m 175.78607,164.38568 c -0.061,0.71321 -0.42404,1.3663 -0.99716,1.79489 l -9.4398,7.4455 c -0.9016,0.69333 -2.15664,0.69333 -3.05797,0 l -9.50629,-7.4455 c -0.62582,-0.47235 -0.99483,-1.21022 -0.99716,-1.99432 l -0.0665,-17.28415 c -0.005,-0.67154 0.25968,-1.31683 0.73437,-1.79166 0.47495,-0.47482 1.12026,-0.73944 1.79178,-0.73449 h 18.68019 c 1.37343,-0.0103 2.49965,1.08636 2.52614,2.45967 l 0.33238,17.28416 c 0.005,0.0885 0.005,0.17735 0,0.2659 z"
           id="path3334"
           stroke-miterlimit="4"
           inkscape:connector-curvature="0"
           style="fill:#333333;fill-rule:evenodd;stroke:none;stroke-linecap:round;stroke-linejoin:round;stroke-miterlimit:4" />
      </g>
    </g>
  </g>
</svg>
